<svg xmlns="http://www.w3.org/2000/svg" xmlns:xlink="http://www.w3.org/1999/xlink" width="375" viewBox="0 0 375 375" height="375" version="1.0"><defs><clipPath id="a"><path d="M 71.707031 152.101562 L 139 152.101562 L 139 222.601562 L 71.707031 222.601562 Z M 71.707031 152.101562"/></clipPath><clipPath id="b"><path d="M 110.484375 184.949219 L 80.355469 184.949219 C 79.1875 184.949219 78.339844 183.839844 78.65625 182.71875 L 86.929688 153.390625 C 87.140625 152.632812 87.835938 152.109375 88.625 152.109375 L 118.753906 152.109375 C 119.921875 152.109375 120.769531 153.21875 120.453125 154.335938 L 112.183594 183.667969 C 111.96875 184.425781 111.273438 184.949219 110.484375 184.949219 Z M 90.914062 207.089844 L 95.171875 191.984375 C 95.488281 190.867188 94.644531 189.757812 93.476562 189.757812 L 77.988281 189.757812 C 77.195312 189.757812 76.503906 190.28125 76.289062 191.039062 L 72.03125 206.140625 C 71.714844 207.257812 72.558594 208.367188 73.730469 208.367188 L 89.214844 208.367188 C 90.007812 208.367188 90.699219 207.84375 90.914062 207.089844 Z M 98.753906 191.039062 L 90.480469 220.367188 C 90.164062 221.488281 91.011719 222.597656 92.179688 222.597656 L 122.308594 222.597656 C 123.097656 222.597656 123.792969 222.074219 124.007812 221.316406 L 132.277344 191.984375 C 132.59375 190.867188 131.746094 189.757812 130.578125 189.757812 L 100.449219 189.757812 C 99.660156 189.757812 98.964844 190.28125 98.753906 191.039062 Z M 120.019531 167.617188 L 115.761719 182.71875 C 115.445312 183.839844 116.289062 184.949219 117.457031 184.949219 L 132.945312 184.949219 C 133.738281 184.949219 134.429688 184.425781 134.644531 183.667969 L 138.902344 168.566406 C 139.21875 167.445312 138.375 166.335938 137.207031 166.335938 L 121.71875 166.335938 C 120.925781 166.335938 120.234375 166.859375 120.019531 167.617188 Z M 120.019531 167.617188"/></clipPath><linearGradient x1="114.296" gradientTransform="matrix(.14169 0 0 .14098 71.964 152.108)" xmlns:xlink="http://www.w3.org/1999/xlink" y1="-47.634" x2="358.611" gradientUnits="userSpaceOnUse" y2="547.607" xlink:type="simple" xlink:actuate="onLoad" id="c" xlink:show="other"><stop stop-color="#00FCA8" offset="0"/><stop stop-color="#00FCA8" offset=".063"/><stop stop-color="#00FCA8" offset=".094"/><stop stop-color="#00FCA9" offset=".102"/><stop stop-color="#01FBAA" offset=".109"/><stop stop-color="#01FBAB" offset=".117"/><stop stop-color="#01FBAC" offset=".125"/><stop stop-color="#01FAAD" offset=".133"/><stop stop-color="#02FAAD" offset=".141"/><stop stop-color="#02F9AE" offset=".148"/><stop stop-color="#02F9AF" offset=".156"/><stop stop-color="#03F9B0" offset=".164"/><stop stop-color="#03F8B1" offset=".172"/><stop stop-color="#03F8B2" offset=".18"/><stop stop-color="#04F8B3" offset=".188"/><stop stop-color="#04F7B4" offset=".195"/><stop stop-color="#04F7B5" offset=".203"/><stop stop-color="#04F7B6" offset=".211"/><stop stop-color="#05F6B7" offset=".219"/><stop stop-color="#05F6B8" offset=".227"/><stop stop-color="#05F6B8" offset=".234"/><stop stop-color="#06F5B9" offset=".242"/><stop stop-color="#06F5BA" offset=".25"/><stop stop-color="#06F4BB" offset=".258"/><stop stop-color="#06F4BC" offset=".266"/><stop stop-color="#07F4BD" offset=".273"/><stop stop-color="#07F3BE" offset=".281"/><stop stop-color="#07F3BE" offset=".281"/><stop stop-color="#07F3BF" offset=".289"/><stop stop-color="#08F3C0" offset=".297"/><stop stop-color="#08F2C1" offset=".305"/><stop stop-color="#08F2C2" offset=".313"/><stop stop-color="#09F2C3" offset=".32"/><stop stop-color="#09F1C3" offset=".328"/><stop stop-color="#09F1C4" offset=".336"/><stop stop-color="#09F1C5" offset=".344"/><stop stop-color="#0AF0C6" offset=".352"/><stop stop-color="#0AF0C7" offset=".359"/><stop stop-color="#0AEFC8" offset=".367"/><stop stop-color="#0BEFC9" offset=".375"/><stop stop-color="#0BEFCA" offset=".383"/><stop stop-color="#0BEECB" offset=".391"/><stop stop-color="#0BEECC" offset=".398"/><stop stop-color="#0CEECD" offset=".406"/><stop stop-color="#0CEDCD" offset=".414"/><stop stop-color="#0CEDCE" offset=".422"/><stop stop-color="#0DEDCF" offset=".43"/><stop stop-color="#0DECD0" offset=".438"/><stop stop-color="#0DECD1" offset=".445"/><stop stop-color="#0EECD2" offset=".453"/><stop stop-color="#0EEBD3" offset=".461"/><stop stop-color="#0EEBD4" offset=".469"/><stop stop-color="#0EEAD5" offset=".477"/><stop stop-color="#0FEAD6" offset=".484"/><stop stop-color="#0FEAD7" offset=".492"/><stop stop-color="#0FE9D8" offset=".5"/><stop stop-color="#10E9D8" offset=".508"/><stop stop-color="#10E9D9" offset=".516"/><stop stop-color="#10E8DA" offset=".523"/><stop stop-color="#11E8DB" offset=".531"/><stop stop-color="#11E8DC" offset=".539"/><stop stop-color="#11E7DD" offset=".547"/><stop stop-color="#11E7DE" offset=".555"/><stop stop-color="#12E7DF" offset=".563"/><stop stop-color="#12E6E0" offset=".57"/><stop stop-color="#12E6E1" offset=".578"/><stop stop-color="#13E5E2" offset=".586"/><stop stop-color="#13E5E3" offset=".594"/><stop stop-color="#13E5E3" offset=".602"/><stop stop-color="#13E4E4" offset=".609"/><stop stop-color="#14E4E5" offset=".617"/><stop stop-color="#14E4E6" offset=".625"/><stop stop-color="#14E3E7" offset=".633"/><stop stop-color="#15E3E8" offset=".641"/><stop stop-color="#15E3E9" offset=".648"/><stop stop-color="#15E2EA" offset=".656"/><stop stop-color="#16E2EB" offset=".664"/><stop stop-color="#16E2EC" offset=".672"/><stop stop-color="#16E1ED" offset=".68"/><stop stop-color="#16E1EE" offset=".688"/><stop stop-color="#17E0EE" offset=".695"/><stop stop-color="#17E0EF" offset=".703"/><stop stop-color="#17E0F0" offset=".711"/><stop stop-color="#18DFF1" offset=".719"/><stop stop-color="#18DFF2" offset=".719"/><stop stop-color="#18DFF3" offset=".727"/><stop stop-color="#18DFF3" offset=".734"/><stop stop-color="#18DEF4" offset=".742"/><stop stop-color="#19DEF5" offset=".75"/><stop stop-color="#19DEF6" offset=".758"/><stop stop-color="#19DDF7" offset=".766"/><stop stop-color="#1ADDF8" offset=".773"/><stop stop-color="#1ADDF9" offset=".781"/><stop stop-color="#1ADCF9" offset=".789"/><stop stop-color="#1BDCFA" offset=".797"/><stop stop-color="#1BDBFB" offset=".805"/><stop stop-color="#1BDBFC" offset=".813"/><stop stop-color="#1BDBFD" offset=".82"/><stop stop-color="#1CDAFE" offset=".828"/><stop stop-color="#1CDAFF" offset=".844"/><stop stop-color="#1CDAFF" offset=".875"/><stop stop-color="#1CDAFF" offset="1"/></linearGradient></defs><g clip-path="url(#a)"><g clip-path="url(#b)"><path fill="url(#c)" d="M 71.714844 152.109375 L 71.714844 222.597656 L 139.207031 222.597656 L 139.207031 152.109375 Z M 71.714844 152.109375"/></g></g><g fill="#FFF"><g><g><path d="M 8.15625 -14.78125 C 9.46875 -14.78125 10.601562 -14.5625 11.5625 -14.125 C 12.53125 -13.695312 13.273438 -13.078125 13.796875 -12.265625 C 14.316406 -11.460938 14.578125 -10.515625 14.578125 -9.421875 C 14.578125 -8.335938 14.316406 -7.390625 13.796875 -6.578125 C 13.273438 -5.765625 12.53125 -5.144531 11.5625 -4.71875 C 10.601562 -4.289062 9.46875 -4.078125 8.15625 -4.078125 L 5.171875 -4.078125 L 5.171875 0 L 1.75 0 L 1.75 -14.78125 Z M 7.96875 -6.859375 C 8.988281 -6.859375 9.765625 -7.082031 10.296875 -7.53125 C 10.835938 -7.976562 11.109375 -8.609375 11.109375 -9.421875 C 11.109375 -10.253906 10.835938 -10.890625 10.296875 -11.328125 C 9.765625 -11.773438 8.988281 -12 7.96875 -12 L 5.171875 -12 L 5.171875 -6.859375 Z M 7.96875 -6.859375" transform="translate(150.635 186.853)"/></g></g></g><g fill="#FFF"><g><g><path d="M 11.484375 -3.171875 L 4.625 -3.171875 L 3.3125 0 L -0.1875 0 L 6.40625 -14.78125 L 9.78125 -14.78125 L 16.390625 0 L 12.796875 0 Z M 10.421875 -5.765625 L 8.0625 -11.421875 L 5.71875 -5.765625 Z M 10.421875 -5.765625" transform="translate(167.847 186.853)"/></g></g></g><g fill="#FFF"><g><g><path d="M 1.75 -14.78125 L 5.171875 -14.78125 L 5.171875 -2.78125 L 12.59375 -2.78125 L 12.59375 0 L 1.75 0 Z M 1.75 -14.78125" transform="translate(185.777 186.853)"/></g></g></g><g fill="#FFF"><g><g><path d="M 1.75 -14.78125 L 5.171875 -14.78125 L 5.171875 -2.78125 L 12.59375 -2.78125 L 12.59375 0 L 1.75 0 Z M 1.75 -14.78125" transform="translate(200.285 186.853)"/></g></g></g><g fill="#FFF"><g><g><path d="M 13.203125 -2.75 L 13.203125 0 L 1.75 0 L 1.75 -14.78125 L 12.921875 -14.78125 L 12.921875 -12.046875 L 5.15625 -12.046875 L 5.15625 -8.828125 L 12.015625 -8.828125 L 12.015625 -6.171875 L 5.15625 -6.171875 L 5.15625 -2.75 Z M 13.203125 -2.75" transform="translate(214.794 186.853)"/></g></g></g><g fill="#FFF"><g><g><path d="M 4.8125 -12 L 0.078125 -12 L 0.078125 -14.78125 L 12.96875 -14.78125 L 12.96875 -12 L 8.234375 -12 L 8.234375 0 L 4.8125 0 Z M 4.8125 -12" transform="translate(230.718 186.853)"/></g></g></g><g fill="#FFF"><g><g><path d="M 8.703125 -8.875 L 8.703125 -3.671875 C 8.703125 -2.515625 8.359375 -1.601562 7.671875 -0.9375 C 6.992188 -0.269531 6.050781 0.0625 4.84375 0.0625 C 3.644531 0.0625 2.703125 -0.269531 2.015625 -0.9375 C 1.328125 -1.601562 0.984375 -2.515625 0.984375 -3.671875 L 0.984375 -8.875 L 2.484375 -8.875 L 2.484375 -3.671875 C 2.484375 -2.929688 2.695312 -2.347656 3.125 -1.921875 C 3.550781 -1.492188 4.128906 -1.28125 4.859375 -1.28125 C 5.585938 -1.28125 6.160156 -1.488281 6.578125 -1.90625 C 6.992188 -2.332031 7.203125 -2.921875 7.203125 -3.671875 L 7.203125 -8.875 Z M 8.703125 -8.875" transform="translate(150.635 204.8)"/></g></g></g><g fill="#FFF"><g><g><path d="M 2.65625 0 L 1.171875 0 L 1.171875 -8.875 L 2.65625 -8.875 Z M 2.65625 0" transform="translate(166.437 204.8)"/></g></g></g></svg>